<?xml version="1.0" encoding="UTF-8"?>
<svg width="24px" height="24px" viewBox="0 0 24 24" version="1.1" xmlns="http://www.w3.org/2000/svg">
    <g stroke="none" stroke-width="1" fill="none" fill-rule="evenodd">
        <path d="M14.2928932,5.29289322 C14.6834175,4.90236893 15.3165825,4.90236893 15.7071068,5.29289322 L21.7071068,11.2928932 C22.0976311,11.6834175 22.0976311,12.3165825 21.7071068,12.7071068 L15.7071068,18.7071068 C15.3165825,19.0976311 14.6834175,19.0976311 14.2928932,18.7071068 C13.9023689,18.3165825 13.9023689,17.6834175 14.2928932,17.2928932 L19.5857864,12 L14.2928932,6.70710678 C13.9023689,6.31658249 13.9023689,5.68341751 14.2928932,5.29289322 Z" fill="#4F46E5" fill-rule="nonzero"/>
        <path d="M8.29289322,5.29289322 C8.68341751,4.90236893 9.31658249,4.90236893 9.70710678,5.29289322 C10.0976311,5.68341751 10.0976311,6.31658249 9.70710678,6.70710678 L4.41421356,12 L9.70710678,17.2928932 C10.0976311,17.6834175 10.0976311,18.3165825 9.70710678,18.7071068 C9.31658249,19.0976311 8.68341751,19.0976311 8.29289322,18.7071068 L2.29289322,12.7071068 C1.90236893,12.3165825 1.90236893,11.6834175 2.29289322,11.2928932 L8.29289322,5.29289322 Z" fill="#4F46E5" fill-rule="nonzero"/>
    </g>
</svg>
